
<svg style="shapeRendering:geometricPrecision; textRendering:geometricPrecision; imageRendering:optimizeQuality; fillRule:evenodd; clipRule:evenodd;"
  viewBox="1000 500 16000 9500"
  xmlns:xlink="http://www.w3.org/1999/xlink"
>
 <g id="Plan_x0020_1">
  <path id="fo" d="M6514.42 5235.42c0,-25 -6.28,-51.32 -2.74,-76.31 1.22,-8.67 4.18,-23.76 11.41,-29.24 17.7,-13.39 33.3,15.16 33.3,29.7 0,27.97 0.23,58.63 -2.74,86.36 -1.09,10.26 -1.04,23.85 -6.38,32.91 -2.67,4.55 -14.37,6.07 -19.17,5.48 -11.49,-1.42 -11.4,-14.91 -11.4,-23.76l-2.28 -25.14zm112.23 -140.28c-8.97,1.17 -20.59,-5.67 -27.83,-10.97 -8.73,-6.41 -8.53,-23.27 -10.04,-32.9 -0.69,-4.46 -4.86,-25.07 -0.45,-27.87 8.35,-5.28 35.75,28.49 41.06,33.81 8.04,8.08 16.42,12.14 16.42,24.22 0,9.9 1.08,17.87 2.74,27.42 1.59,9.1 13.42,28.28 3.19,35.18 -15.12,10.18 -25.49,-22.35 -26.46,-31.98l1.37 -16.91zm6.84 -164.05c-2.65,-12.7 -1.06,-26.55 -3.65,-39.75 -2.07,-10.5 -6.86,-25.91 -7.3,-36.1 -0.64,-15 1.53,-17.45 8.67,-29.7 3.44,-5.89 10.09,-18.84 17.79,-10.51 14.37,15.52 13.64,30.6 14.15,50.72l2.28 90.02c0.26,10.19 3.93,22.98 -6.39,29.7 -17.91,11.68 -27.37,-19.62 -27.37,-31.53l1.82 -22.85zm-63.87 -37.47c-3.73,-0.38 -4.29,-1.91 -5.93,-5.48 -4.11,-8.98 -14.41,-26.62 -3.65,-34.27 7.3,-5.2 17.83,2.32 22.81,7.31 8.87,8.91 12.49,24.71 16.43,36.55 1.25,3.75 3.17,11.22 -2.74,11.43 -5.9,0.2 -10.78,-1.33 -16.43,-2.74 -4.22,-1.06 -8.91,-1.55 -12.31,-4.57l1.82 -8.23zm137.78 12.34c-5.87,-13.65 -9.43,-30.72 -13.69,-45.24 -4.13,-14.1 -12.69,-61.34 18.25,-46.61 14.59,6.95 14.22,31.12 16.43,44.33 3.9,23.21 19.21,41.78 24.17,64.43 8.94,40.88 -36.19,18.57 -38.32,-6.86l-6.84 -10.05z"/>
 <path id="no" d="M13862.74 1468.29c-9.44,-0.85 -20.15,-12.1 -24.63,-20.56 -1.81,-3.44 23.68,-44.22 27.37,-51.64 5.18,-10.45 15.01,-14.23 20.07,-2.74 6.67,15.18 16.43,35.09 16.43,51.64 0,9.2 -5.53,17.07 -6.85,26.04 -1.78,12.16 -6.75,14.38 -18.7,16.91l-13.69 -19.65zm-560.24 244.47c-0.69,-6.88 -1.47,-14.53 -5.93,-20.11 -21.33,-4.15 -62.82,-1.13 -43.34,-37.01 36.22,-66.67 88.75,19.42 118.62,-11.88 7.26,-7.6 6.79,-15.99 15.97,-23.3 12.98,-10.35 25.97,-13.34 36.04,-28.34 11.04,-16.42 17.16,-31.07 39.69,-31.07 8.89,8.89 -3.19,51.41 -3.19,65.35 0,37.69 -30.96,76.21 -67.07,87.73 -14.86,4.73 -34.76,-5.98 -48.81,4.57 -15.32,11.52 -12.56,20.57 -38.78,10.05l-3.2 -15.99zm157.86 78.14c-12.76,-2.27 -20.65,-18.91 -24.64,-30.62 -2.56,-7.49 1.63,-11.22 7.3,-15.99 8.69,-7.29 18.18,-12.5 26,-20.56 4.44,-4.59 25.55,-27.3 31.94,-16.91 3.64,5.94 0,23.13 0,30.16 0,14.69 -10.57,30.06 -6.39,43.87 1.44,4.75 3.37,10.7 1.37,15.53 -1.73,4.16 -15.46,11.47 -19.16,8.23l-16.42 -13.71zm108.58 -107.84c-5.94,2.72 -22.28,-10.73 -26.46,-15.54 -8.88,-10.19 -15.94,-34.73 -6.39,-46.15 8.46,-10.1 12.4,1.05 18.25,6.4 12.15,11.14 52.13,-13.24 49.27,16.45 -1.65,17.1 -0.13,32.06 -16.42,41.58l-18.25 -2.74zm-134.59 137.08c-8.76,-3.54 -13.54,-5.48 -23.27,-5.48 -9.26,0 -29.98,-1.7 -37.86,3.2 -6.39,3.96 -6.86,15.24 -1.83,20.56 4.69,4.97 10.59,5.23 16.88,5.94 3.84,0.44 8.11,0.7 11.87,1.37 7.79,1.38 9.53,8.25 17.33,10.06 8.65,2 17.77,-5.71 22.81,-11.88l-5.93 -23.77zm-375.92 148.06c-0.6,-5.4 1.22,-14.27 1.82,-20.11 0.9,-8.78 0.96,-26.94 9.13,-31.98 7.07,-4.37 11.59,5.91 16.42,9.13 4.24,2.83 15.4,5.29 17.79,9.6 3.42,6.14 -4.19,21.52 -6.38,27.42 -3.56,9.63 -13.52,17.36 -23.73,17.36l-15.05 -11.42zm-145.54 -13.25c-2.42,-10.26 -1.82,-17.42 -6.84,-26.96 -6.21,-11.78 -15.37,-33.97 -7.3,-46.16 8.02,-12.09 14.85,-10.05 19.62,2.29 3.82,9.86 8.43,18.21 16.42,25.59 10.69,9.89 23.92,19.27 18.71,35.64 -3.5,10.98 -21.17,30.49 -32.39,19.19l-8.22 -9.59zm-41.06 40.67c-10.42,0.87 -23.01,0.67 -32.84,-3.66 -12,-5.28 -19.97,-20.61 -36.05,-13.71 -9.42,4.03 -8.55,16.97 -12.31,25.13 -7.11,15.46 -38.13,24.01 -37.41,39.76 0.2,4.59 6.12,8.25 9.12,11.42 8.45,8.89 6.47,24.71 17.34,30.16 22.65,11.34 41.82,-10.31 54.74,-25.59 12.36,-14.63 31.62,-30.02 39.24,-47.52l-1.83 -15.99zm-33.76 -80.89c-1.57,-8.89 0.01,-17.07 -3.19,-26.04 -3.06,-8.61 -8.37,-20.64 -18.71,-21.02 -19.09,-0.72 -26.09,19.1 -29.19,34.27 -2.37,11.58 -1.38,15.82 3.19,26.96 5.77,14.09 27.89,8.71 38.78,4.11l9.12 -18.28zm-190.7 289.26c21.69,7.81 73.75,2.5 92.16,-12.8 24.83,-20.65 17.51,-27.37 11.86,-53.92 -3.18,-14.92 -1.64,-45.81 -19.62,-52.55 -30.98,-11.63 -24.23,31.47 -41.51,42.96 -11.23,7.48 -26.54,5.91 -38.32,11.88 -4.42,2.23 -9.81,4.24 -13.69,7.31 -3.47,2.76 -8.12,9.4 -10.95,10.96 -0.8,7.23 -16.14,15.68 -18.25,24.68 -3.87,16.44 11.39,17.97 23.72,23.76l14.6 -2.28zm-110.86 191l0 -52.09c0,-10.67 19.52,-17.8 24.64,-26.5 3.83,-6.49 14.04,-26.31 1.37,-28.33 -12.92,-2.05 -26.22,7.34 -38.33,3.65 -8.3,-2.52 -37.28,-57.04 -51.09,-30.16 -10.39,20.2 -26.94,20.13 -47.91,25.59 -37.08,9.67 -3.57,15.61 3.2,31.99 5.64,13.62 -17.39,26 -20.99,38.84 -3.43,12.21 6.41,21.12 -11.86,23.31 -8.75,1.05 -31.61,14.58 -13.69,20.56 5.98,2 26.44,8.17 28.75,14.62 1.32,3.67 -46.32,27.7 -27.83,37.47 17.17,9.08 29.43,-2.12 37.41,21.02 11.75,34.02 34.68,-29.43 42.42,-37.47 9.01,-9.34 15.98,-17.79 26.47,-25.59 6.24,-4.65 15.71,-4.9 22.81,-10.05l24.63 -6.86zm-385.05 16c18.43,-15.78 29.23,-39.59 50.19,-51.64 13.03,-7.48 78.25,-19.09 87.59,-9.59 0,18.98 -40.47,42.68 -55.2,52.55 -14.99,10.03 -30.67,27.67 -35.13,45.69 -2.49,10.05 -6.29,21.78 -12.32,30.16 -13.15,18.3 -25.21,-4.2 -37.41,10.51 -11.1,13.4 -10.48,31.53 -34.67,31.53 -20.24,-20.24 6.8,-67.99 18.7,-85.91l18.25 -23.3zm-151.92 199.23c-14.16,13.18 -31.1,-25.41 -36.95,-30.62 -10.13,-9 -30.53,-17.13 -31.48,3.66 -0.55,12.22 -11.99,19.28 -17.34,29.7 -10.62,20.72 -9.28,48.75 20.08,47.98 25.3,-0.67 29.59,-27.94 49.72,-35.18l15.97 -15.54zm14.14 21.48c-3.24,-9.41 13.87,-32.47 16.43,-43.87 1.62,-7.19 17.75,-91.43 27.37,-63.52 8.5,24.63 3.93,50.44 -0.91,75.4 -4.91,25.26 -4.14,57.17 -22.81,77.22 -10.18,10.92 -13.45,17.24 -31.48,15.54 -30.13,-2.83 -10.33,-24.21 1.37,-39.75l10.03 -21.02zm47.45 80.42c20.51,-6.58 16.62,-23.37 21.44,-40.21 7.1,-24.83 75.85,3.16 62.05,-20.11l-18.71 -31.53c-9.31,-15.7 -12.99,-18.78 6.39,-30.61 13.69,-8.36 21.4,-26.23 35.13,-31.99 14.03,-5.89 -2.18,58.59 2.74,68.09 10.62,20.54 1.21,34.22 7.75,50.72 4.62,11.64 82.87,17.03 84.86,-5.49 1.36,-15.49 -11.24,-25.24 -8.67,-40.21 1.26,-7.31 28.76,-24.67 35.59,-24.67 0,20.37 -4.56,42.78 -4.56,63.97 0,21.74 -54.5,65.74 -73.46,78.14 -10.95,7.15 -43.81,54.83 -55.65,41.13 -8.06,-9.31 -2.88,-22.85 -17.34,-26.96 -29.54,-8.39 -20.5,27.22 -33.3,37.01 -15.19,11.63 -21.5,5.95 -21.9,-12.34 -0.92,-42.52 -14.69,8.51 -36.96,0.46 -16.15,-5.83 -16.64,-29.79 -11.4,-42.5l26 -32.9zm-179.75 145.31c10.77,-12.49 14.73,-28.26 24.64,-40.67 14.89,-18.67 56.33,-24.26 78.92,-29.24 27.25,-6.02 20.84,10.13 3.65,22.39 -28.13,20.05 -42.22,50.36 -67.52,71.74 -18.51,15.63 -48.44,39.9 -45.62,-5.03l5.93 -19.19zm-177.92 33.36c12.02,-12.81 50.89,-64.83 68.89,-56.66 11.24,24.97 28.39,10.89 48.35,21.02 0.18,0.74 0.34,0.79 0.92,1.37 0,10.33 -24.51,26.62 -31.48,33.81 -16.83,17.35 -28.31,37.07 -52.47,45.7 -18.53,6.63 -45.16,13.82 -45.16,-16.45l10.95 -28.79zm-142.34 126.58c5.01,-20.63 14.58,-44.02 26.91,-61.24 5.71,-7.96 28.73,-40.21 41.06,-32.9 2.89,14.36 -7.49,25.24 -11.86,37.47 -8.06,22.58 -24.63,93.71 -61.13,77.69l5.02 -21.02zm-193.44 862.73c9.7,-2.17 16.13,-13.33 23.27,-20.11 7.2,-6.85 18.75,-36.2 31.93,-31.99 8.27,2.63 3.48,26.3 0.91,31.53 -3.48,7.05 -7.3,10.45 -7.3,18.74 0,14.27 -10.08,14.3 -20.07,21.93 -11.53,8.82 -25.88,17.12 -36.04,1.83l7.3 -21.93zm-1060.25 1212.75c31.36,-4.71 63.02,-49.45 96.71,-43.86 11.6,1.92 6.02,12.71 11.41,20.56 6.76,9.82 39.94,25.61 20.99,39.76 -15.54,11.59 -37.27,10.65 -55.66,12.79 -14.57,1.7 -27.81,6.28 -41.52,10.97 -15.24,5.2 -28.57,12.97 -45.17,8.68 -24.18,-6.24 -15.84,-29.22 -0.91,-40.67l14.15 -8.23zm7.75 -109.66c14.67,-2.8 30.3,-9.55 44.25,-14.63 10.12,-3.69 21.49,-8.68 32.4,-8.68 4.98,7 5.01,18.88 5.01,27.88 0,18.99 -32.17,14.16 -44.25,14.16 -9.81,0 -17.9,2.21 -27.37,3.66 -16.9,2.6 -21.08,0.45 -35.13,-8.23l25.09 -14.16zm-87.59 163.59c-19.09,2.83 -29.52,7.89 -38.33,25.58 -3.02,6.08 6.7,17.6 10.04,22.85 10.48,16.43 25.7,9.6 42.89,9.6 11.43,0 18.19,-8.05 18.7,-19.65 0.57,-12.73 -8.43,-22.69 -16.88,-31.07l-16.42 -7.31zm-873.21 1306.43c-3.53,-4.96 -3.32,-11.76 -7.3,-17.37 -7.99,-11.28 -52.26,-68.1 -63.87,-61.68 -13.52,7.49 0.16,30.34 5.93,37.92 12.71,16.71 49.84,30.16 50.64,53.92 0.69,20.75 0.11,63.26 26.92,66.72 14.76,1.91 38.37,-6.9 39.69,-23.76 1.6,-20.3 -27.27,-29.01 -41.06,-37.93l-10.95 -17.82zm-68.89 361.45c-8.51,0.65 -9.3,1.18 -14.6,-5.03 -1.96,-2.31 -5.01,-11.8 -5.47,-15.08 -1.83,-13.12 3.9,-20.05 7.3,-31.98 2.39,-8.36 2.92,-19.05 12.77,-21.94 13.94,-4.08 20.53,3.46 20.53,16.45 0,6.69 0.23,12.73 1.83,19.2 2.32,9.34 0.53,13.29 -4.11,21.02l-18.25 17.36zm-44.71 2.28c-9.12,-4.91 -10.85,-14.45 -17.33,-21.93 -4.98,-5.76 -21.96,-20.51 -26.92,-6.85 -3.16,8.69 -4.1,18.94 -4.1,28.33 0,5.29 3.05,8.54 3.64,13.71 1.04,9.02 2.07,23.34 11.41,28.78 14.97,8.71 29.75,-7.35 34.22,-20.1l-0.92 -21.94zm-71.62 40.67c-5.69,-12.2 -16.55,-30.61 -31.94,-30.61 -7.88,0 -9.12,10.25 -9.12,16.45 0,5.85 -0.29,11.6 -0.46,17.36 -0.3,9.8 -5.6,19.95 1.37,28.79 9.61,12.21 26.43,-5.5 33.76,-11.88l6.39 -20.11zm-61.59 298.85c-0.28,-7.44 3.45,-20.84 5.93,-28.33 2.52,-7.65 12.39,-32.88 21.9,-33.36 10.75,-0.55 12.35,8.92 10.49,17.82 -2.15,10.25 -8.25,18.9 -10.49,28.79 -2.16,9.58 0.07,18.72 -1.37,27.88 -1.79,11.45 -18.64,25.39 -25.09,9.59l-1.37 -22.39zm1606.51 309.89c6.02,-2.02 10.42,-4.58 11.75,-8.62 4.41,-13.3 -28.05,-38.21 -38.32,-41.12 -12.39,-3.52 -31.8,-2.92 -39.24,-15.54 -9.84,-16.71 -10.83,-21.93 -32.85,-21.93 -38.08,0 -57.7,15.21 -37.4,-37.47 5.42,-14.09 -9.58,-16.73 -14.6,-27.41 -6.26,-13.34 -2.74,-81.52 -2.74,-100.53 0,-27.44 4.76,-53.79 5.47,-81.33 0.8,-31.32 22.19,-58.26 23.73,-84.08 1.14,-19.04 -44.71,2.28 -44.71,25.59 0,21.95 6.81,93.2 -2.74,107.83 -8.48,13.01 -30.19,22.7 -41.06,7.32 -5.22,-7.38 -13.22,-49.35 -19.16,-49.35 -6.43,19.45 -14.83,35.75 -23.72,55.74 -6.93,15.61 18.3,40.87 16.42,63.06 0,56.5 -13.82,67.36 -44.71,107.84 -29.96,39.24 20.45,109.98 -48.36,100.52 -19.59,-2.69 -97.63,2.7 -97.63,-11.88 0,-17.19 12.45,-41.14 -5.47,-53 -11.53,-7.62 -48.75,4.57 -64.78,4.57 29.51,23.66 10.1,75.97 -22.81,84.07 -53.19,13.08 -20.4,59.04 -68.44,66.71 -17.39,2.78 -68.41,-11.51 -41.06,20.11 26.12,30.21 -37.59,55.14 -65.69,68.54 -42.38,20.2 -106.62,116.06 -146.9,116.06 -14.1,15.87 -56.31,55.1 -74.82,64.89 -25.33,13.39 -32.88,-25.17 -47.45,-32.9 -40.4,-21.41 -87.25,57.36 -132.3,59.4 -31.94,1.45 -55.05,-35.42 -80.29,-31.07 -24.18,4.16 -25.73,11.73 -45.62,-8.23 -12.01,-12.04 -21.27,-31.56 -37.41,-36.55 -36.53,-11.28 -42.05,11.28 -73,15.53 -23.43,3.21 -41.65,-36.44 -25.54,-51.17 20.73,-18.94 45.79,-16.87 65.69,-30.16 34.29,-22.88 -21.45,-32.79 -37.41,-37.47 -30.08,-8.81 -67.18,-39.33 -87.59,-63.06 -33.43,-38.89 -81.53,-65.09 -114.97,-104.18 -27.05,-65.81 -26.97,-157.66 -6.39,-224.81 19.19,-62.63 69,26.98 81.21,38.38 126.55,118.07 12.89,-66.35 87.59,-122.46 9.05,-6.79 54.29,-16.77 31.03,-35.64 -33.13,-26.89 -26.75,-38.28 7.3,-65.8 15.12,-12.21 73.9,-45.55 73.9,-63.97 -27.45,0 -37.79,-24.98 -64.78,21.94 -12.16,21.15 -68.87,69.17 -52.92,9.14 9.05,-34.1 -16.49,-28.9 -29.2,-5.49 -14.49,26.71 -16.33,83.45 -45.62,41.13 -48,-69.38 -33.24,43.54 -77.56,17.36 -26.94,-15.9 -23.24,-143.3 -7.3,-169.07 10.99,-17.76 42.55,-20.15 62.05,-34.72 18.2,24.36 -25.63,67.26 -13.69,84.99 17.72,26.34 45.68,-30.2 54.75,-39.3 14.63,-14.7 33.83,3.83 42.88,-13.71 20.81,-40.36 46.04,-14.44 72.08,-33.81 6.75,-5.01 12.94,-24.61 1.83,-27.42l0 -1.82c-82.75,0 -60.17,-16.54 -18.25,-58.49 33.76,-15.36 65.34,-36.31 94.89,-58.49 24.36,-18.3 -27.5,-26.33 -20.98,-47.52 6.86,-22.27 87.21,-83.16 110.4,-83.16 10.67,43.19 -5.47,76.98 -5.47,118.8 0,55.07 17.1,33.19 14.6,2.74 -7.57,-92.12 63.29,-147.23 140.51,-166.32 0,-35.12 -123.05,-2.43 -145.99,-3.66 -80.6,-4.33 -138.21,69.92 -167.89,137.08 -18.3,41.39 -33.32,79.68 -50.18,13.71 -9.5,-37.21 36.41,-84.99 -33.76,-84.99 -62,0 -1.85,-36.49 -27.37,-62.14 -49.08,-49.35 12.89,-29.02 21.9,-64.89 27.14,0 67.55,58.16 92.15,25.59l51.1 -67.63c5.81,-7.7 -4.74,-41.7 -5.48,-53 -2.6,-39.83 -71.21,14.38 -83.94,-18.28l-14.6 -37.47c-6.35,-16.3 40.14,-7.89 36.5,-31.98 -0.78,-5.17 -65.38,-1.29 -82.12,-6.4 -64.41,-19.7 -6.23,-56.65 18.25,-73.11 8.96,-6.03 -0.31,-28.13 8.21,-26.5 27.59,5.31 54.78,0.45 81.21,4.57 47.4,6.73 92.48,10.38 135.04,32.9 34.04,18 46.17,21.96 84.85,12.79 9.26,-2.2 35.1,-22.95 36.5,-22.84 6.19,0.49 33.09,48.76 37.41,58.48 12.41,27.95 -26.68,82.85 20.98,69.46l52.01 -14.62c5.67,-1.59 -26.78,-37.15 -29.2,-42.96 -13.86,-33.13 119,-41.62 145.08,-37.46 27.2,4.33 73.32,-26.8 92.16,-45.7 9.26,-9.3 -67.47,-22.77 -73.91,-43.86 -13.32,-43.56 14.6,-57.26 14.6,-96.87 -52.02,12.86 -73,-15.7 -73,46.6 1.28,-1.89 0.26,-2.3 0,-4.57 10.18,91.02 46.96,131.51 -80.29,119.72 -21.17,-1.96 2.09,-44.8 0,-53 -6.93,-27.17 -61.53,38.5 -78.47,22.84 -36.53,-33.74 15.97,-80.9 -1.82,-98.69 -5.5,-5.5 -47.8,29.62 -52.92,35.64 -20.13,23.62 -13.04,62.14 -48.36,62.14 -31.49,0 -62.14,-30.7 -94.9,-38.38 -24.76,-5.81 -135.45,-7.97 -142.33,-35.64 -5.23,-21.02 -11.7,-89.44 10.03,-98.7l0 -3.66c-44.61,-14.76 0.71,-40.34 35.59,-26.5 29.28,11.63 88.77,21.42 43.79,-23.76 -17.37,-17.46 -12.61,-30.65 -26.46,-45.69 -11.88,-12.89 -96.25,-54.91 -62.95,-68.54 15.29,-6.26 49.69,-4.78 59.3,-20.11 46.42,-74 54.86,-31.77 116.79,8.23 47.74,30.82 193.12,45.43 241.8,15.53 18.22,-11.19 -69.63,-13.21 -80.3,-14.62 -37.39,-4.97 -105.51,-12.5 -126.82,-45.69 -26.02,-40.51 -136.25,-16.08 -150.55,-50.27 -7.66,-18.34 19.9,-47.48 16.42,-71.28 -3.89,-26.61 -3.01,-51.6 11.86,-12.79 4.63,12.11 1.47,26.87 4.56,39.29 5.65,22.75 56.34,16.97 35.59,-24.67 -20.74,-41.6 22.52,-7.16 47.44,-9.14 22.77,0 70.15,-22.21 73,9.14 4.81,53.02 -5.35,60.32 45.62,60.32 29.04,0 27.13,8.54 18.25,-21.94 -6.13,-21.08 -63.57,-69.2 -44.71,-84.07 13.41,-10.56 74.61,-40.62 85.77,-25.59 18.59,25.01 33.34,120.99 72.08,112.4 23.19,-5.15 -0.74,-45.2 -6.39,-59.4 -14.01,-35.24 -53.16,-54.84 -2.74,-66.71 122.01,-28.72 60.01,141.65 96.72,141.65 16.25,0 35.33,13.58 26.46,-8.22 -31.35,-76.96 46.54,-59.82 46.54,-73.11 0,-17.2 -54,-16.8 -66.61,-25.59 -17.89,-12.49 -3.62,-46.14 -15.51,-55.75 -26.65,-21.52 -78.08,-20.72 -112.23,-17.36 -16.93,1.67 -111.98,-2.2 -100.37,-25.59 14.42,-29.02 56.45,-26.5 82.12,-26.5 68.02,0 -41.06,-47.25 -41.06,-49.35 0,-31.28 105.16,3.51 120.44,5.48 18.75,2.41 49.65,-5.7 64.78,1.83 18.09,9 22.78,42.3 51.1,35.64 21.7,-5.11 42.44,-14.49 56.57,10.05 11.79,20.46 27.21,53.01 54.75,53.01 6.33,0 51.32,-3.39 43.79,-11.88 -14.52,-16.4 -49.07,-17.06 -61.13,-33.82 -10.58,-14.72 29.85,-25.31 38.32,-33.81 17.22,-17.31 93.15,0.91 120.44,0.91 -26.37,-19.7 -10.45,-32.91 -59.31,-37.46 -11.61,1.91 -127.34,35.24 -83.03,-9.14 4.04,-4.05 23.73,-14.29 23.73,-18.28 0,-18.46 -145.26,-7.73 -134.13,-43.87 8.45,-27.46 62,-24.87 43.8,-46.6 -56.27,-67.2 -17.62,-35.5 35.58,-45.7 29.93,-5.74 25.75,9.45 40.15,32.9 13.33,21.73 58.26,19.38 80.29,23.76 16.09,3.19 70.39,3.34 78.47,15.54 21.4,32.27 36.22,71.43 59.31,104.18 45.41,64.37 30.64,-20.35 15.51,-39.3 -17.47,-21.9 -84.86,-96.14 -84.86,-117.89 0,-25.02 79.54,18.87 86.68,29.25 13.78,20.06 28.26,53.91 56.57,48.43 18.32,-3.55 4.47,-47.17 -7.29,-56.66 -26.05,-21.05 -34.68,-48.46 -34.68,-81.33 0,-44.08 16.43,-12.86 16.43,14.62 7.68,3.84 13.58,16.45 23.72,16.45 11.57,0 15.56,0.03 26.46,2.74 22.92,5.69 29.31,-18.26 3.65,-31.07 -22.39,-11.17 -20.68,-26.21 -22.81,-50.26 4.61,-24.83 22.84,-43.75 49.27,-35.64 24.75,7.59 50.31,-6.61 65.7,-2.74 0,17.89 -24.99,79.54 19.16,66.71 23.6,-6.86 78.02,-18.17 40.14,-46.61 -28.18,-21.17 5.38,-22.44 0.92,-34.73 -8.64,-23.85 15.56,-38.07 39.23,-31.98 33.16,8.52 66.65,-12.44 93.07,22.85 42.83,57.18 43.78,20.73 25.55,103.26 -8.71,39.42 31.61,20.11 57.48,20.11 5.55,0 29.84,2.04 31.02,-2.74 -47.69,-16.13 -1.13,-51.29 24.64,-56.66 23.16,-4.83 100.86,20.24 99.45,0 -0.89,-12.72 15.5,-58.86 14.6,-61.23 -3.61,-9.41 -40.98,0.63 -49.27,0.91 -83.49,2.89 31.09,-41.2 38.32,-45.69 50.73,-31.46 118.62,-15.52 118.62,-102.36 -26.61,3.35 -90.59,16.71 -57.49,-30.15 10.04,-14.21 73.51,-47.38 69.35,-52.09 -4.69,-5.33 -23.4,-36.24 -27.38,-36.56 -21.02,-1.72 -45.24,39.83 -59.3,53.92 -14.27,14.32 -129.16,73.44 -72.08,83.16 11.56,1.96 65.76,-5.51 40.14,16.45 -27.25,23.34 -147.41,102.36 -177.92,95.96 -14.94,-3.14 -63.59,-36.32 -58.4,-53.92 2.6,-8.85 87.53,-56.55 47.45,-52.09 -16.45,1.83 -170.46,46.35 -114.97,-9.14 12.64,-12.64 46.7,-10.19 59.31,-22.85 11.33,-11.38 -19.06,-32.85 3.65,-42.95 16.87,-7.51 40.55,32.2 60.22,24.68 36.66,-14 24.8,-40.26 20.08,-68.54 -3.01,-18.1 87.76,-142.5 103.1,-181.86 44.33,-25.75 110.4,-57.14 110.4,-110.58 1.83,0 40.15,68.17 40.15,81.33 0,65.79 19.41,49.71 55.66,25.59 25.47,-16.96 40.89,12.97 44.71,-37.47 3.99,-52.76 74.25,-11.22 26.46,-67.62 -12.32,-14.55 0.85,-27.17 -10.04,-42.96 -37.19,-53.96 36.64,-74.02 77.56,-74.02 30.56,0 -17.83,-42.44 28.28,-45.69 33.2,-2.33 66.98,12.79 99.46,12.79 -32.86,-97.16 -226.51,32.9 -280.12,32.9 14.94,-45.17 34.94,-48.01 71.17,-58.49 49.65,-14.35 56.7,-72.14 111.32,-85.9 18.97,-4.78 65.88,-42.95 75.73,-42.95 0,25.84 -17.79,89.6 25.55,61.23 20.03,-13.12 85.76,-27.48 85.76,-60.32 -37.89,0 -68.98,37.82 -63.87,-34.73 4.38,-62.27 -61.36,1.08 -32.84,-50.26 6,-10.8 16.11,-14.25 21.9,-23.76 27.88,-45.83 -3.03,8.46 46.53,5.48 29.23,-1.75 -42.42,-80.63 -41.97,-86.81 19.99,-75.35 63.02,-2.89 81.2,-27.42 20.94,-28.23 -41.82,-70.52 -8.21,-84.08 8.38,-3.37 31.4,-30.15 33.76,-30.15 21.18,0 58.55,61.97 68.43,52.09 14.51,-14.51 -9.7,-63.32 -3.65,-80.42 3.36,-9.53 29.2,-46.97 29.2,-50.27 0,-20.85 -70.67,-16.61 -77.55,-25.58 -3.37,-4.38 10.64,-21.02 14.59,-21.94 12.51,-2.91 24.38,1.17 35.59,6.4 34.91,16.32 57.43,-14.83 80.29,-8.22 15.67,4.52 37.54,22.76 53.84,11.88 17.31,-11.54 11.37,-23.25 38.32,-25.59 8.75,-0.75 41.81,-20.52 43.79,-26.5 -31.97,0 -74.67,-0.75 -105.84,-6.4 -55.12,-10.01 -51.06,-9.04 -19.16,-49.35 11.42,-14.42 -24.2,-42.99 -32.85,-51.18 -34.56,-32.69 45.38,-10.84 64.79,-13.71 30.8,-4.57 13.68,-2.39 13.68,-23.76 0,-24.89 -13.9,-12.4 -32.84,-26.5 -24.65,-18.34 28.47,-25.58 40.14,-28.33 34.56,-8.13 -6.86,-36.28 -20.98,-56.66 31.13,0 64.68,-4.57 94.89,-4.57 0.46,-1.4 -0.02,-0.91 1.82,-0.91 0,-15.7 -77.21,-46.36 -67.52,-84.08 1.67,-6.49 43.41,1.17 50.19,0.92 31.45,-1.18 41.03,-30.16 74.82,-30.16 21.11,0 57.92,14.59 77.55,3.65 17.49,-9.76 -29.02,-39.7 -2.73,-51.17 9.7,-4.24 52.69,-16.45 62.95,-16.45 17.59,0 20.74,19.12 33.76,20.1 13.48,1.02 18.09,-15.98 31.03,-21.02 27.19,-10.61 57.48,23.49 77.55,1.83 27.26,-29.4 -0.86,-32.23 -20.07,-47.52 -23.34,-18.59 -20.91,-72.87 -66.61,-42.95 -31.9,20.88 -59.32,46.31 -101.28,38.38 -57.48,4.03 -27.15,-27.3 -10.98,-49.67 17.1,-23.68 42.46,-0.86 62.95,-3.66 19.97,-2.74 47.8,-7.25 31.94,-32.9 -4.58,-7.4 -34.02,-6.34 -44.71,-12.79 -29.53,-17.85 -7.12,-14.79 5.47,-27.42 6.94,-6.95 23,-30.22 34.22,-27.42 11.09,2.76 16.51,20.06 24.18,26.51 20.63,17.33 46.61,2.31 65.24,31.53 6.3,9.87 2.35,36.54 13.69,40.67 15.32,5.57 28.17,7.03 36.95,-8.69 12.05,-21.6 -15.77,-29.08 -6.84,-45.24 7.79,-14.12 24.18,-21.44 24.18,-41.58 -8.92,-2.13 -70.87,18.18 -69.8,-5.48 0.48,-10.64 32.48,-27.35 15.51,-31.53 -33.5,-8.25 -40.51,-41.1 3.65,-36.1 11.46,1.3 32.4,10.08 39.23,-1.37 8.09,-13.59 -16.09,-23.15 -22.81,-32.45 -29.94,-37.34 -52.56,-10.53 -84.36,5.36 -94.8,47.4 9.58,-68.07 39.23,-76.76 41.57,-12.2 108.58,52.34 108.58,-36.56 -13.2,-3.26 -43.69,-9.47 -47.45,-23.76 -5.3,-20.08 -24.15,4.75 -37.41,3.66 -15.67,-1.28 -0.79,-38.38 24.64,-38.38 38.34,0 90.9,-51.48 100.37,-21.94 10.5,32.71 -4.44,78.76 18.24,101.44 5.03,5.03 57,73.74 50.19,32.9 -2.63,-15.78 -17.61,-27.16 -2.74,-42.03 36.23,-36.23 -17.63,-32.97 -10.04,-54.84 10.85,-31.3 15.91,-85.77 51.1,-100.52 25.8,-10.82 33.24,8.32 51.09,12.79 23.98,6.02 49.74,-23.2 63.87,-0.91 5.81,9.18 41.93,56.89 49.28,21.93 4.64,-22.12 -12.79,-40.62 -9.13,-43.87 16.32,-14.45 39.6,-10.49 32.85,-39.29 -7.45,-31.82 20.98,-29.12 20.98,-55.75 -16.46,0 -34.64,32.14 -62.04,35.64 -24.98,3.18 -40.77,0.01 -61.13,-8.22 -2.92,-1.17 -91.69,22.01 -105.84,21.02 -48.86,-3.43 118.2,-88.67 141.42,-94.13 24.44,-5.75 75.24,-26.77 89.42,-49.35 24.27,-38.61 -21.75,-69.12 -12.77,-107.84 7.58,-29.66 -10.4,-84.16 31.93,-89.56 28.41,-3.63 70.56,8.41 94.89,0.92 32.23,-9.91 -19.74,-58.87 -22.81,-74.94 -2.81,-14.66 21.9,-45.11 21.9,-71.28 0,-73.11 54.84,45.76 76.64,56.66 7.89,3.94 98.52,-5.34 71.17,-23.76 -24.98,-16.81 -64.78,-32.76 -64.78,-69.46 0,-57.31 57.56,9.23 69.35,21.94 10.02,10.82 13.14,29.02 22.81,40.21 14.99,17.37 41.97,17.52 41.97,45.69 0,24.33 4.33,36.99 16.42,56.66 8.64,14.08 19.34,21.28 36.5,13.71 7.67,-3.39 -4.29,-13.34 -6.39,-16.45 -21.51,-31.89 2.44,-63.44 -38.32,-88.65 -24.21,-14.98 -31.02,-33.71 -31.02,-62.14 0,-19.66 -0.82,-30.37 10.95,-44.78 18.48,-22.6 -1.38,-48 21.9,-71.28 9.24,-9.24 47.02,-46.61 58.39,-46.61 0,33.21 -4.48,64.28 -10.95,96.87 -13.85,69.77 11.69,78.37 34.67,7.31 8.35,-25.81 -0.65,-49.71 3.65,-74.93 6.96,-40.86 -0.14,-29.75 38.33,-46.61 32.52,-11.58 61.09,-40.2 59.3,7.31 -1.78,46.99 -0.53,108.63 -31.02,146.22 -3.68,4.55 -27.02,40.88 -17.34,45.69 10.97,5.46 34.76,-43.66 39.24,-51.17 12.89,-21.56 31.84,-30.87 44.71,-51.18 20.69,-32.68 -8.79,-65.84 41.06,-103.27 26.5,-19.91 30.69,-72.4 43.79,-80.42 61.26,-37.47 77.76,67.01 93.07,97.79 7.13,14.32 69.2,73.12 82.12,43.86 2.34,-5.29 -43.25,-65.21 -50.18,-75.85 -19.89,-30.5 38.02,-93.44 -13.69,-117.89 -37.78,-17.87 -99.46,-45.2 -99.46,-95.95l0.92 -0.92c43.37,18.82 34.21,10.95 73.9,4.57 23.97,-3.86 26.81,18.26 42.89,17.36 9.26,-0.52 34.2,-15.89 40.14,-3.65 5.96,12.26 12.69,83.22 38.33,31.07 19.33,-39.34 102.45,-7.26 80.29,3.66 -13.03,6.41 -75.61,47.74 -55.66,53 12.07,3.19 68.35,-19.68 72.08,-4.57 24.21,5.95 -29.75,106.31 7.3,92.3 15.43,-5.84 19.31,-24.47 38.33,-29.24 21.74,-5.44 69.21,9.57 72.99,-23.76 2,-17.59 -35.24,-27.83 -48.36,-37.47 -59.49,-43.76 52.05,-42.1 18.25,-62.14 -39.81,-23.59 -28.45,-68.37 2.74,-99.62 15.95,-11.71 23.25,-35.78 45.62,-32.9 18.91,2.44 97.02,1.82 106.75,-15.53 0.33,-0.58 -29.81,-40.32 -37.41,-58.49 -3.03,-7.23 -31.53,-67.26 9.13,-50.26 43.59,18.23 78.19,39.54 50.18,-29.25 -9.2,-22.59 -42.23,-12.48 -60.22,-36.55 -36.86,-49.34 50.7,-82.37 84.86,-41.12 13.61,16.45 46.17,42.16 66.6,48.43 44.33,13.59 19.16,-39.6 19.16,-48.43 64.95,0 72.56,5.16 51.1,56.66 -33.35,79.99 -70.26,180.93 -70.26,269.59 0,19.45 -13.12,75.58 7.3,71.28 24.02,-5.05 64.5,3.92 65.7,-29.25 1.34,-36.88 -10.95,-63.94 -10.95,-93.21 0,-25.12 28.52,-48.83 32.85,-76.76 9.57,-61.76 32.87,-105.36 62.04,-160.85 18.99,-36.11 78.47,-60.2 78.47,1.83 0,31.47 -7.43,23.55 -20.99,49.35 -2.25,4.28 35.29,69.32 36.5,95.96 2.22,49.1 7.51,62.14 52.92,27.41 17.39,-13.29 81.77,-25.44 44.71,-59.4 -18.75,-17.19 11.97,-38.66 -2.74,-58.49 -35.91,-48.44 18.31,-38.06 43.8,-81.33 10.25,-17.39 -108.85,-30.69 -101.28,-84.08 8.01,-56.45 65.24,7.83 87.59,21.02 14.12,8.32 27.38,2.6 20.99,-15.53 -6.11,-17.37 -28.29,-24.49 -28.29,-44.78 -3.77,-22.76 -15.75,-54.01 16.43,-45.7 59.68,15.41 37.41,54.27 119.53,23.76 38.61,-14.35 -19.14,57.98 -18.25,66.72 0.69,6.86 36.35,-4.57 42.88,-4.57 33.67,0 28.52,44.69 16.42,63.97 -18.15,28.95 -56.97,10.98 -79.38,-4.57 -8.23,-5.72 -49.69,-30.2 -47.44,1.83 1.79,25.55 110.63,54.91 22.81,82.25 -22.96,7.15 -49.34,53.79 -16.43,59.4 16.34,2.79 63.59,-37.71 73,-50.27 33.96,-45.35 49.23,-5.95 11.86,29.25 -54.62,51.43 2.02,43.54 29.2,50.26 5.65,28.65 -4.02,80.46 19.16,97.78 15.72,-11.74 12.37,-67.43 33.76,-83.16 3.66,-2.7 48.31,-3.46 32.85,-14.62 -24.12,-17.43 -22.89,-46.39 -10.04,-69.45 7.51,-13.5 22.71,-16.85 26.46,-31.99 2.96,-11.92 -5.98,-27.07 -2.74,-40.21 16.09,0 35.34,-8.16 52.01,-6.4 21.97,2.33 9.06,20.96 20.07,32.9 18.27,19.84 38.62,-23.45 72.09,2.74 21.2,16.6 42.3,-5.27 65.69,20.11 49.88,54.15 18.03,20.87 106.75,44.78l71.17 19.19c1.17,0.31 15.54,52.63 9.13,56.66 -55.36,34.89 -55.63,29.19 -88.51,84.99 -38.37,65.14 -139.58,62.14 -205.29,62.14 -18.77,1.62 -32.61,-4.59 -50.19,-5.48 -46.21,-2.34 -62.83,-2.12 -10.03,31.07 35.5,22.32 44.87,20.67 86.68,29.25 34.09,6.99 37.06,-4.38 15.51,25.58 -4.2,5.83 -43.51,50.75 -20.08,49.35 11.48,-0.69 40.89,-25.14 62.96,-28.33 54.37,-7.85 9.81,62.32 4.56,79.51 -21.61,70.73 -8.49,31.5 40.15,17.36 25.2,-7.33 48.3,28.29 82.12,22.85 61.31,-9.86 -37.22,-94.43 9.12,-107.84 68.67,-19.86 12.47,60.21 54.75,81.34 25.1,12.55 8.01,-64.91 33.76,-68.54 7.4,-1.05 16.44,-2.19 26.08,-2.92l0 0 -7.83 92.48 -51.1 58.48c-24.33,24.42 -24.61,18.97 -32.85,51.18 -4.99,19.49 -26.21,30.7 -27.37,51.18 -3.35,59.05 -0.36,88.35 -62.96,115.14 -18.9,8.09 -56.76,-0.42 -62.95,21.02 -15.31,53.06 -45.8,28.23 -76.65,63.97 -19.27,22.34 -51.66,36.87 -80.29,39.3l0 0c0,-21.94 1.84,-44.15 7.3,-64.88 4.33,-16.41 3.05,-34 5.47,-51.18 2.12,-15 7.3,-29.83 7.3,-45.69 0,-23.99 -3.91,-46.28 -4.56,-69.46 -2.2,-53.75 1.03,-132.32 -21.9,-181.86 -24.29,-52.51 -113.07,-57.12 -161.5,-84.07 -16.38,-9.12 -50.34,-42.96 -67.52,-42.04 -46.94,2.51 -18.98,53.54 -47.44,69.45 -16.1,8.99 -37.68,0.42 -53.84,6.4 -32.14,11.88 -38.35,41.16 -56.57,67.63 -8.2,33.07 -59.51,73.17 -43.79,104.18 14.15,27.94 11.61,43.94 12.77,74.93 2.56,67.85 15.21,158.96 -6.39,223.9 -14.55,43.72 -71.01,47.37 -73.9,96.87 -4.43,75.9 -66.03,94.43 -126.83,109.67 -66.27,-15.65 -91.77,-27.74 -128.65,-82.25 -24.39,-36.03 -89.12,35.54 -114.06,46.6 -130.4,57.88 -218.24,-113.5 -283.76,-190.08 -19.15,-22.37 -122.44,-163.58 -139.6,-131.6 -12.11,22.59 -25.36,83.03 -30.11,109.67l-82.12 21.02 0 0 -29.2 22.84c0,45.8 41.94,72.73 31.94,116.98l-32.85 145.3c-39.8,176.05 -98.14,54.47 -185.22,35.64 -46.82,-10.13 -172.4,-49.22 -207.12,-21.93 -52.3,41.09 -65.97,266.77 -121.36,262.28 -42.66,-3.46 -64.92,-60.39 -109.49,-45.69 -51.32,16.94 -71.57,108.75 -118.61,135.25 -88.08,88.2 -108.58,117.74 -108.58,241.26 0,102.06 -33.65,170.12 -90.33,252.23 -44.41,64.33 -113.68,52.94 -119.53,148.96 -6.3,103.23 -90.48,92.45 -171.54,123.37 -15.37,73.98 -42.64,143.42 -56.57,218.42 -11.56,62.2 -10.56,123.31 -11.86,186.43 -2.63,127.71 -76.09,219.72 -140.51,326.25 -63.64,148.43 153.24,438.19 -146.9,360.97 -200.35,-51.55 -266.29,244.33 -350.38,375.6 -12.95,52.13 1.21,102.09 0,154.45 -1.03,44.75 -11.86,88.77 -11.86,133.42 0,80.5 20.96,164.96 18.25,242.18 -1.82,52.12 -46.95,104.83 -55.66,160.84 0,107.21 77.25,106 113.14,186.43 17.74,39.74 13.58,144.01 -26.46,169.06 -28.48,17.83 -88.31,17.24 -83.94,60.32 5.53,54.43 3.06,104.42 20.99,157.18 23.82,70.11 39.57,92.75 2.73,158.1 -23.48,117.92 -44.98,210.34 -149.64,284.22 -27.53,19.44 -34.86,49.69 -49.27,78.59 -54.97,110.17 -99.45,215.83 -99.45,341.79 -7.79,8.86 -6.84,10.01 -19.16,12.79l-49.16 -33.42 0 0z"/>
  <path id="se" d="M10709.35 7946.54c-7.57,9.1 -14.03,-4.31 -17.33,-11.43 -2.97,-6.38 -5.8,-13.63 -5.02,-20.56 0.76,-6.7 33.01,-14.01 39.69,-22.39 7.99,-10 15.34,-17.82 28.74,-17.82 7.39,0 5.92,25.55 8.67,32.44 2.84,7.08 2.34,9.66 -4.56,13.71 -10.61,6.21 -22.29,5.78 -31.94,14.62l-18.25 11.43zm1236.39 944.14c2.91,-43.51 38.93,-110.28 49.28,-157.19 12.01,-54.49 43.17,-73.36 68.43,-118.8 16.38,-29.49 56.86,-180.03 91.24,-180.03 18.92,0 4.94,69.39 -0.91,79.5 -54.87,94.67 -74.64,203.33 -128.65,297.01 -29.79,51.66 -38.61,201.32 -95.81,220.24 0,-32.2 12.77,-62.98 12.77,-95.04l3.65 -45.69zm493.63 -391.14c-9.16,-72.8 -11.1,-151.17 27.37,-213.84 16.55,-26.98 51.18,-35.92 67.52,-63.97 22.23,-38.19 27.95,-14.75 55.66,-8.23 22.86,5.37 32.46,-29.46 45.62,-39.29 13.94,-10.4 19.7,14.95 33.76,-2.75 28.4,-35.78 89.21,-67.21 31.93,4.57 -19.44,24.37 -32.79,68.24 -53.83,84.99 -28.58,22.77 -29.79,133 -3.65,152.62 25.64,19.26 14.87,28.52 -5.47,42.95 -39.2,27.79 -24.25,70.98 -73.91,94.13 -50.84,23.71 -57.19,104.74 -101.28,132.51 -44.29,27.91 -18.86,-14.57 -10.04,-35.64 20.4,-48.74 4.2,-39.64 -12.77,-82.25l-0.91 -65.8zm-1725.29 -1033.19l49.16 33.42c12.32,-2.78 11.37,-3.93 19.16,-12.79 0,-125.96 44.48,-231.62 99.45,-341.79 14.41,-28.9 21.74,-59.15 49.27,-78.59 104.66,-73.88 126.16,-166.3 149.64,-284.22 36.84,-65.35 21.09,-87.99 -2.73,-158.1 -17.93,-52.76 -15.46,-102.75 -20.99,-157.18 -4.37,-43.08 55.46,-42.49 83.94,-60.32 40.04,-25.05 44.2,-129.32 26.46,-169.06 -35.89,-80.43 -113.14,-79.22 -113.14,-186.43 8.71,-56.01 53.84,-108.72 55.66,-160.84 2.71,-77.22 -18.25,-161.68 -18.25,-242.18 0,-44.65 10.83,-88.67 11.86,-133.42 1.21,-52.36 -12.95,-102.32 0,-154.45 84.09,-131.27 150.03,-427.15 350.38,-375.6 300.14,77.22 83.26,-212.54 146.9,-360.97 64.42,-106.53 137.88,-198.54 140.51,-326.25 1.3,-63.12 0.3,-124.23 11.86,-186.43 13.93,-75 41.2,-144.44 56.57,-218.42 81.06,-30.92 165.24,-20.14 171.54,-123.37 5.85,-96.02 75.12,-84.63 119.53,-148.96 56.68,-82.11 90.33,-150.17 90.33,-252.23 0,-123.52 20.5,-153.06 108.58,-241.26 47.04,-26.5 67.29,-118.31 118.61,-135.25 44.57,-14.7 66.83,42.23 109.49,45.69 55.39,4.49 69.06,-221.19 121.36,-262.28 34.72,-27.29 160.3,11.8 207.12,21.93 87.08,18.83 145.42,140.41 185.22,-35.64l32.85 -145.3c10,-44.25 -31.94,-71.18 -31.94,-116.98l29.2 -22.84 0 0c39.51,47.1 71.15,103.52 105.84,155.35 46.06,68.84 119.96,85.81 186.14,129.77 21.41,48 60.7,102.24 92.15,144.39 14.53,19.49 33.58,44.1 60.22,44.78 20.6,0.53 59.51,-15.5 76.65,-8.22 10.66,54.02 43.28,110.81 44.7,167.24 1.24,49.68 -40.01,123.78 28.29,136.16 17.47,24.52 2.8,55.41 -7.3,84.08 -17.54,49.81 -18.81,46.51 -14.6,97.78 26,48.02 67.03,53.36 86.68,105.1 26.03,68.5 -24.63,144.86 -24.63,214.76 0,98.44 78.36,171.37 83.03,259.54l-1.6 49.95 0 0c-18.19,-5 -70.49,24.33 -87.82,24.98 -42.3,1.58 -81.51,-18.71 -123.18,5.49 -60.44,35.09 -52.65,-54.02 -88.5,-41.13 -18.42,6.63 -4.72,50.26 -25.55,50.26 -17.69,0 -45.75,-37.31 -52.01,-53 -5.57,0 -27.62,61.61 -27.37,62.14 6.23,12.82 104.24,40.93 43.79,59.4 -64.89,19.84 -125.93,-80.42 -177.92,-80.42 0,60.95 118.99,57.09 106.75,135.26 -16.93,29.19 31.86,56.8 0,76.76 -24.1,15.09 -70.55,21.35 -98.54,31.07 -79.6,27.63 48.24,90.55 31.02,137.08 -13.06,35.26 -56.74,65.65 -76.64,101.44 -50.43,90.73 7.94,50.93 20.99,116.06 9.35,46.72 -57.25,15.09 -77.56,20.11l0 1.83c11.78,2.91 67.94,53.42 79.38,64.88 28,28.08 86.13,65.88 56.57,107.84 -36.12,56.3 -115.76,97.71 -132.3,156.27 -12.93,45.81 -4.39,126.2 -58.4,151.7 -39.44,18.61 -36.11,-37.74 -71.16,26.5 -34.43,63.12 -48.86,57.9 -104.93,93.22 -27.42,17.28 -19.31,43.29 -41.98,60.31 -35.9,26.97 -48.79,-49.86 -69.34,-44.78 -11.03,44.85 -32.71,154.7 -83.94,170.9 -16.9,12.29 -47.09,53.99 -62.96,58.49 -20.58,5.85 -52.77,-30.81 -62.96,-9.14 -31.7,67.46 57.14,80.3 -6.39,123.37 -66.49,45.06 -46.42,-8.61 -93.98,-19.19 -35.58,-7.91 -30.69,-3.2 -58.39,-26.5 -10.71,-9 -26.98,-43.46 -41.06,-38.39 -36.77,13.27 49.75,105.96 52.01,129.77 3.66,38.41 -25.62,60.88 -22.81,90.48 1.61,16.93 17.27,31.9 7.3,49.34 -46.54,81.43 -64.83,12.98 -98.55,-13.7 -44.62,-35.29 -47.96,86.62 -39.23,100.52 4.91,7.81 147.78,84.84 57.48,74.94 -36.04,-3.95 -7.86,52.71 -9.12,73.11 -11.12,26.73 -44.06,80.86 -39.24,110.58 3.29,20.28 31.05,39.3 38.33,63.05 16.75,54.69 -129.42,-93.81 -98.55,-20.1 15.13,36.15 30.53,37.91 7.3,74.94 -23.21,37.02 -22.05,91.89 -1.82,132.51 25.65,51.53 -50.18,55.31 -50.18,74.02 0,4.23 31.23,10.97 36.49,10.97 0,20.05 -11.14,47.39 -15.51,67.62 -6.65,29.05 37.58,142.21 65.7,156.27 43.82,21.9 19.71,62.78 -1.83,93.22 -16.22,22.91 -9.31,46.38 -20.07,69.45 -26.73,57.34 -98.36,71.05 -134.13,112.41 -29.78,34.42 63.06,-11.43 71.17,-16.45 52.41,-32.41 78.66,-56.17 110.4,-116.06 11.65,-21.97 18.4,-80.64 44.71,-91.39 35.99,-14.69 56.63,87.7 69.35,110.58 49.83,89.68 73.31,-88.87 99.45,-21.02 16.44,42.66 15.17,67.26 61.13,86.82 13.71,5.84 84.86,37.37 84.86,48.43l-0.91 0.92c-19.68,3.88 -101.31,3.32 -109.49,8.22 0,30.9 48.55,34.73 54.74,54.83 12.28,39.9 31.13,36.42 57.49,10.06 14.7,-14.7 6.21,58.27 1.82,69.45 -18.47,21.14 -90.03,68.13 -79.38,72.19 18.36,7.02 97.94,7.48 93.07,21.02 -5.08,14.16 -34.42,24.32 -48.36,30.16 -18.46,7.72 -17.84,38.23 -41.97,55.75 -44.55,32.33 -77.73,28.53 -125.92,48.43 -17.1,7.05 20.17,45 30.11,48.44 21.14,7.31 63.6,-10.05 74.82,4.57 18.74,24.39 -32.77,39.31 -54.75,28.33 -35.78,-17.89 -76.44,-6.28 -31.93,29.24 36.66,29.27 -18.33,55.28 -43.8,82.25 -24.47,25.92 -36.39,152.51 -84.85,114.23 -26.65,-21.04 -27.85,-118.8 -36.5,-118.8 -8.99,36.37 -24.53,52.88 -30.11,95.04 -5.66,42.71 -78.69,37.9 -104.02,54.83 -22.42,14.97 -38.44,36.9 -62.95,52.09 -32.87,20.38 -94.16,-6.43 -130.48,2.75 0,32.2 77.15,33.37 99.45,43.86 39.71,18.7 73.39,85.04 -2.73,69.46l-45.62 -0.92c-6.1,24.27 46.2,42.14 62.04,61.23 32.45,39.14 -15.3,42.73 -34.67,47.52 -5.5,39.14 79,172.02 -18.25,138.91 -12.24,-4.17 -40.15,-43.12 -40.15,-15.54 0,24.58 19.24,44.86 24.64,67.63 7.78,32.74 -8.21,74.55 -8.21,109.66 0,45.78 19.48,109.24 2.73,154.45 -12.7,34.25 -52.21,66.87 -72.99,98.7 3.57,57.94 -18.85,110.2 -15.51,169.06 2.52,44.52 -40.14,71.56 -52.01,109.67l-31.02 99.61c-12.21,39.19 -34.86,75.3 -40.15,115.15 -9.54,71.91 -81.79,39.71 -121.35,19.19 -40.54,-21.04 -64.36,-21.11 -108.58,-30.16 -19.61,-4.91 -178.95,-87.1 -144.16,8.22 31.58,86.55 -35.13,8.35 -66.61,31.99 -46.41,34.86 -59.1,81.15 -68.43,134.34 -14.17,80.69 66.02,97.57 24.63,163.58 -63.15,100.68 -35.24,30.55 -133.21,8.22 -65.4,-14.91 -105.46,28.22 -166.98,36.56 -49.99,6.78 -102.91,-25.44 -142.34,-53.92 -10.62,-7.68 39.24,-89.67 39.24,-104.18 0,-34.12 -38.38,-50.84 -52.01,-80.42 -29.77,-64.62 3.8,-209.1 -40.15,-253.14 -18.47,-18.5 -75.54,-58.94 -12.77,-55.75 44.24,2.25 34.84,51.44 70.26,60.32 18.56,4.66 8.57,-77.35 1.82,-88.65 -11.08,-18.57 -29.2,-27.5 -29.2,-49.35 49.52,-12.17 72.23,26.77 76.65,-40.21 0,-41.88 -20.61,-52.38 -54.75,-69.45 -32.74,-16.37 -11.08,-63.18 -32.85,-86.82 -18.82,-20.42 -32.29,-27.19 -40.14,-56.66l-25.55 -95.95c-13.75,-51.62 -35.87,-95.54 -50.18,-144.4 -21.85,-74.55 18.22,-139.07 5.47,-209.27 -13.93,-56.15 -0.25,-56 22.81,-104.18 15.22,-31.78 5.14,-70.39 10.95,-104.18 3.8,-22.07 18.45,-38.83 23.72,-59.4 5.3,-20.72 -30,-24.25 -44.71,-34.73 -5.71,-46.46 -72.08,56.12 -72.08,-19.19 -21.57,-12.41 -55.06,40.92 -67.52,15.53 -10.77,-21.97 5.27,-61.53 10.04,-84.07 13.96,-66.04 24.19,-154.21 9.12,-220.25 10.22,-22.39 43.16,-23.7 61.25,-29.76l0 0z"/>
  <path id="fi" d="M12939.38 7104.07c-16.77,2.38 -73.91,-77.97 -73.91,-94.13 13.43,-3.39 60.92,-15.38 52.01,-38.39 -8.27,-21.39 -33.55,-44.91 -17.34,-71.28 13.08,-21.3 47.47,10.05 56.57,20.11 16.06,17.73 86.87,39.91 52.92,64.88 -23.84,17.52 -32.58,20.34 -31.02,51.18 0.72,14.19 7.9,37.47 25.55,37.47 30.74,0 46.09,-31.44 42.88,21.93 -1.88,31.2 -57.22,16.45 -76.64,16.45l-31.02 -8.22zm132.3 -4627.83c39.51,47.1 71.15,103.52 105.84,155.35 46.06,68.84 119.96,85.81 186.14,129.77 21.41,48 60.7,102.24 92.15,144.39 14.53,19.49 33.58,44.1 60.22,44.78 20.6,0.53 59.51,-15.5 76.65,-8.22 10.66,54.02 43.28,110.81 44.7,167.24 1.24,49.68 -40.01,123.78 28.29,136.16 17.47,24.52 2.8,55.41 -7.3,84.08 -17.54,49.81 -18.81,46.51 -14.6,97.78 26,48.02 67.03,53.36 86.68,105.1 26.03,68.5 -24.63,144.86 -24.63,214.76 0,98.44 78.36,171.37 83.03,259.54l-1.6 49.95 0 0c3.37,0.92 5.57,3.03 6.16,6.71 8.08,50.14 123.12,46.32 114.05,94.12 -4.49,23.64 185.06,37.62 156.94,158.1 -9.52,40.77 -23.91,86.07 16.42,115.15 45.79,33 94.89,47.9 23.73,102.35 -2.51,20.06 -30.32,53.7 -47.45,28.33 -19.99,-29.63 -27.14,17.51 -34.67,26.51 -18.86,22.51 -95.19,9.92 -116.79,36.55 -15.09,18.62 -14.73,85.88 -22.81,114.23 -14.68,51.53 -24.35,57.55 -57.49,94.13 -27.51,30.38 -46.75,90.98 -75.73,129.77 -20.68,27.67 -19.62,13.41 -46.53,20.11 -4.86,1.2 -42.25,70.61 -46.53,81.33 -18.61,46.66 -66.85,49.14 -97.63,85.9 -17.94,21.41 -40.57,38.13 -43.8,66.72 -4.46,39.5 -8.04,72.46 -45.62,95.04 -55.34,62.31 2.31,72.02 -17.34,138.91 -26.94,91.66 -69.13,26.34 -85.77,-22.85 -5.89,1.45 -17.83,18.41 -28.28,21.93 -25.45,8.57 -86.5,-7.63 -78.47,33.82 17.77,91.75 15.73,100.94 -37.41,170.89 -26.07,34.31 -40.39,62.76 -20.99,103.27 12.42,25.96 -24.58,186.49 16.43,170.89 64.47,-24.54 -7.5,97.35 3.65,141.65 -0.93,-3.72 -2.8,42.12 1.82,51.18 24.3,47.55 45.62,4.89 45.62,74.02 0,32.54 28.29,49.4 28.29,74.94 0,15.39 -27.8,27.05 -26.46,56.66 1.03,22.97 36.91,109.17 16.42,129.77 -7.11,7.14 -23.76,-21.88 -40.14,-2.75 -9.41,10.98 44.66,144.39 58.39,164.5 11.46,16.77 -24.89,36.04 -10.04,65.8 18.68,37.46 25.05,68.4 37.41,108.75 25.67,43.29 48.75,-28.66 88.51,-23.76 3.17,12.84 -23.78,80.42 4.56,80.42 85.03,0 55.72,83.12 163.33,29.24 19.83,-9.92 59.24,-5.98 31.02,19.19 -13.17,11.76 -53.18,22.93 -19.16,37.47 122.35,52.28 -133.8,137 22.81,177.29 46.66,12 49.35,26.17 79.38,-26.5 7.06,-12.37 93.98,-198.39 93.98,-142.56 0,53.05 -19.93,68.5 18.25,116.97 43.46,55.15 -63.69,123.75 -0.91,96.87 32.5,-13.91 53.05,-10.59 35.58,19.19 -11.49,19.57 -46,29.8 -38.32,53.01 70.7,0 50.73,-21.53 104.93,-63.06 36.93,-28.29 79.18,-12.06 113.14,-34.72 53.3,-35.55 111,-35.82 138.69,-75.86 20.85,-30.13 148.88,-57.93 188.87,-76.76 51.64,-11.5 74.32,-46.22 113.14,-74.94 34.08,-25.2 17.39,-59.18 34.67,-89.56 11.43,0 45.56,37.46 78.47,38.39 67.86,1.92 116.5,-36.59 177.92,-47.53 45.07,-8.03 97.93,0.33 136.87,-27.41 2.43,-27.11 8.48,-38.49 16.97,-41.25l0 0c-39.31,-94.08 119.5,-342.54 174.64,-406.55 42.97,-49.87 72.72,-107.09 113.14,-155.35 63.42,-117.32 172.32,-216.42 247.27,-329 68.31,-102.62 97.35,-223.93 164.23,-324.42 65.9,-153.78 -7.99,-172.25 -91.24,-281.47l-64.78 -84.99c-24.21,-31.76 -87.26,-24.88 -107.67,-53.92 -14.27,-20.32 -25.68,-43.99 -41.06,-63.06 -44.65,-55.33 -92.65,-69.41 -57.48,-155.35 11.51,-60.73 21.78,-145.26 -3.65,-202.88 -24.48,-55.44 -71.69,-91.29 -72.99,-156.27l-2.74 -38.39c-2.78,-45.13 -66.5,-64.88 -84.86,-104.18 -17.64,-37.73 -28.19,-72.09 -32.84,-113.32 -3.42,-30.29 -9.72,-54.13 -16.43,-84.07 -28.83,-49.78 -38.56,-64.83 -21.9,-123.38 14.56,-51.13 21.18,-98.2 14.6,-150.78 -13.75,-109.9 -127.69,-192.67 -168.8,-291.53 -35.19,-55.95 -95.91,-93.25 -109.49,-161.75 -10.52,-53.11 26.32,-100.7 42.89,-147.14 29.06,-81.48 96.27,-207.57 27.37,-280.55 -37.5,-39.71 -92.12,-112.66 -104.02,-166.33 -56.21,-56.21 -125.63,-102.85 -168.8,-170.89 -34.09,-53.72 -10.42,-112.11 -17.33,-168.15 -15.73,-11.26 -49.91,-17.14 -52.01,-34.73l0 0c0,-21.94 1.84,-44.15 7.3,-64.88 4.33,-16.41 3.05,-34 5.47,-51.18 2.12,-15 7.3,-29.83 7.3,-45.69 0,-23.99 -3.91,-46.28 -4.56,-69.46 -2.2,-53.75 1.03,-132.32 -21.9,-181.86 -24.29,-52.51 -113.07,-57.12 -161.5,-84.07 -16.38,-9.12 -50.34,-42.96 -67.52,-42.04 -46.94,2.51 -18.98,53.54 -47.44,69.45 -16.1,8.99 -37.68,0.42 -53.84,6.4 -32.14,11.88 -38.35,41.16 -56.57,67.63 -8.2,33.07 -59.51,73.17 -43.79,104.18 14.15,27.94 11.61,43.94 12.77,74.93 2.56,67.85 15.21,158.96 -6.39,223.9 -14.55,43.72 -71.01,47.37 -73.9,96.87 -4.43,75.9 -66.03,94.43 -126.83,109.67 -66.27,-15.65 -91.77,-27.74 -128.65,-82.25 -24.39,-36.03 -89.12,35.54 -114.06,46.6 -130.4,57.88 -218.24,-113.5 -283.76,-190.08 -19.15,-22.37 -122.44,-163.58 -139.6,-131.6 -12.11,22.59 -25.36,83.03 -30.11,109.67l-82.12 21.02 0 0z"/>
  <path id="dk" d="M10120.83 9459.51c-14.42,-5.01 -41.94,-37.06 -54.74,-47.98 -21.63,-18.44 -35.54,-99.04 -32.4,-127.49 2.14,-19.46 18.83,-18.89 30.11,-28.78 26.94,-23.59 35.65,-56.72 77.11,-64.89 51.52,-10.14 27.48,64.04 59.76,85.91 26.9,18.21 30.07,-12.54 41.06,-26.97 6.04,-7.92 42.32,-45.84 51.1,-38.38 0,30.31 -17.34,58.78 -17.34,90.02 0,55.28 14.73,91.38 -5.93,147.14 -18.44,49.74 -75.3,27.21 -113.14,20.56l-35.59 -9.14zm577.57 62.61c12.57,-37.84 -52.73,-29.1 -11.86,-61.69 26.79,-21.35 71.66,-9.93 103.11,-27.88 17.16,-9.8 21.62,-37.55 4.56,-49.35 -23.77,-16.43 -62.5,-41.22 -62.5,-72.65 0,-40.57 48.19,-51.36 66.61,-79.97 13.82,-24.3 30.32,-54.8 26.91,-83.62 -2.48,-20.89 -15.44,-45.47 -4.56,-65.8 24.52,-45.85 -24.65,-88.26 -65.69,-97.34 -42.2,-9.33 -58.14,21.96 -90.79,36.1 -14.86,6.44 -41.96,13.23 -13.69,25.14 9.27,3.91 46.02,15.2 43.34,27.41l-15.96 72.66c-9.16,41.69 -21.36,-7.53 -23.27,-22.85 -0.52,-4.14 -3.57,-30.6 -5.48,-31.07 0,5.33 -24.8,26.91 -29.19,32.9 -6.64,9.04 4.65,23.82 1.82,35.64 -10.13,42.35 -65.33,20.76 -61.13,8.23 5.34,-15.96 16.89,-36.19 14.14,-53.47 -6.23,-39.17 28.74,-39.52 28.74,-63.06 0,-10.99 -35.12,-4.69 -41.97,-4.11 -34.52,2.97 -125.17,-51.27 -88.51,22.39 22.39,11.19 65.35,18.07 41.06,44.78 -26.11,28.69 -69.88,36.96 -107.21,29.71 -18.68,-3.62 -44.6,-22.49 -41.52,9.13 3.47,35.7 23.73,23.56 38.78,42.5 17.87,22.5 -12.77,78 -12.77,105.1 0,31.61 12.64,114.91 44.25,130.69 20.04,10.02 40.67,2.45 61.59,4.57 13.49,1.36 20.99,10.05 37.41,10.05 10.87,0 46.97,-9.57 47.91,7.77 0.78,14.34 -20.99,28.75 -20.99,47.98 -1.39,17.96 4.66,32.44 15.51,46.15 10.74,13.55 20.44,12.47 36.5,14.63 18.75,2.53 35.27,15.05 55.2,17.82 8.96,1.25 15.78,-0.48 18.71,-10.06 2.86,-9.32 8.65,-21.73 9.58,-31.07l1.36 -17.36zm-425.19 -414c-3.64,0.59 -1.5,-3.87 -1.37,-6.86 0.62,-14.43 5.25,-27.16 7.76,-41.12 1.97,-10.92 3.92,-20.06 16.88,-19.65 8.25,0.26 12.69,4.38 16.42,11.42 3.62,6.86 0.95,12.21 0,19.19 -1.18,8.6 -0.84,17.64 -0.46,26.05 0.49,10.95 -12.9,16.04 -21.9,18.28l-17.33 -7.31zm-266.43 407.14c-6.2,-5.43 -12.21,-23.06 -15.97,-31.07 -5.32,-11.35 -14.98,-14.85 -17.34,-28.33 -5.62,-32.16 23.59,-9.29 32.85,0 15.12,15.15 59.78,38.3 49.73,63.97 -5.51,14.06 -5.02,19.24 -5.02,33.82 0,20.6 -27.49,-4.93 -31.02,-12.8l-13.23 -25.59zm231.3 98.7c5.02,-11.19 10.27,-22.64 20.07,-30.15 11.02,-8.46 20.17,-11.44 26.46,-24.68 7.87,-16.58 9.3,-34.67 18.71,-50.72 4.01,-6.83 25.44,-45.61 33.76,-39.3 0,38.54 -23.71,86.55 -41.97,120.18 -6.51,11.98 -49.69,86.48 -59.77,49.81l2.74 -25.14zm213.97 -5.48c-31.69,-3.4 -45.41,-29.7 -79.39,-29.7 -30.84,0 -4.92,27.99 -10.49,40.67 -4.47,10.15 -36.74,31.9 -20.53,43.87 19.2,14.16 44.1,15.72 65.24,26.04 32.55,15.91 22.87,46.87 70.26,41.59 12.29,-1.36 24.04,-6.46 36.5,-1.83 14.67,5.44 34.57,0.88 41.06,-15.54 7.23,-18.32 21.1,-64.1 -7.76,-63.06 -26.46,0.96 -58.17,2.18 -73.91,-21.48l-20.98 -20.56zm149.18 89.56c0,-22.14 -2,-32.32 -8.21,-52.55 -8.24,-26.88 -4.74,-62.05 28.74,-32.9 21.94,19.11 56.25,24.07 79.84,3.66 34.16,-29.57 52.98,-55.87 103.1,-35.64 61.85,24.98 -11.58,31.14 -31.93,37.92 -11.08,3.7 -18.38,13.3 -28.74,18.28 -18.39,8.86 -30.35,-7.98 -51.1,6.4 -9.31,6.44 -10.02,19.27 -17.34,26.96 -17.51,18.37 -38.47,33.36 -48.36,57.58 -2.57,6.29 -7.03,21.32 -12.31,25.13 -12.02,8.7 -20.44,-9.37 -20.99,-18.74l7.3 -36.1zm-147.81 -1326.08c-0.59,-10.16 39.61,-34.43 50.18,-37.93 9.93,-3.28 38.72,-3.87 47.9,0 0,4.3 -7.13,10.62 -9.58,14.17 -14.37,20.84 -4.23,51.18 -37.41,55.29 -13.85,1.72 -15.17,-13.69 -31.02,-8.22 -15.5,5.36 -30.27,3.81 -37.41,-13.26l17.34 -10.05zm1024.21 1260.28c-16.81,-1.15 -43.8,-34.5 -43.8,-50.72 0,-8.98 12.95,-56.26 18.71,-58.03 9.59,-2.96 33.63,23.51 40.14,31.07 14.83,17.25 49.27,27.45 54.75,50.72 6.5,27.64 -3.04,48.85 -36.5,45.24l-33.3 -18.28zm-1828.94 -164.57l89.89 13.37c23.84,34.28 53.14,87.45 92.16,104.18 59.83,25.65 99.09,-35.34 151.22,-35.34l0 0c1.27,-4.12 2.07,-8.73 2.07,-14.01 0,-23.24 -21.57,-52.03 -40.15,-64.89 -16.45,-11.37 -39.95,-17.44 -54.75,-28.33 -6.25,-4.59 16.23,-57.45 21.9,-66.71 2.53,-4.15 34.15,8.6 45.62,-0.91 15.43,-12.78 7.8,-34.94 10.95,-53.92 -10.28,-40.02 -9.12,-72.8 -9.12,-109.66 24.31,-6.14 57.36,-7.7 59.31,-42.04 1.32,-23.42 -18.25,-38.27 -18.25,-57.58 0,-7.55 46.23,11.57 60.22,10.97 43.03,-1.86 5.57,-72.23 29.19,-76.76 30.91,-5.92 51.59,27.03 82.12,-1.83 68.22,-64.46 -17.08,-172.72 96.72,-172.72 0,13.05 -17.35,38.57 -14.6,42.03l31.94 40.21c2.71,3.4 53.71,-86.25 64.78,-35.64 1.41,6.46 1.12,29.61 3.65,32.9 24.36,31.74 25.11,-34.28 25.55,-40.21 0.8,-10.63 33.63,-7.79 41.97,-15.53 6.6,-6.14 4.56,-23.45 4.56,-32.9 0,-21.27 24.98,-26.5 30.11,-46.61 8,-31.29 -34.76,-50.23 -36.5,-65.8 -5.49,-34.28 -57.67,-28.06 -83.94,-24.67 -29.66,3.82 -37.8,-13.56 -62.05,-21.02 -19.15,-5.9 -38.83,-3.39 -23.72,-31.99 29.24,-55.38 9.54,-96.77 24.64,-155.35 12.77,-49.53 45.9,-107.96 85.77,-144.4 18.14,-16.59 18.79,-75.63 24.63,-100.52 8.58,-36.61 -30.18,-66.42 -20.07,-110.58 11.17,-7.21 64.78,-65.51 64.78,-79.51 1.52,-1.01 0.91,-4.85 0.91,-7.31 -63.63,-15.73 -104.77,47.51 -165.15,53.01 -91.47,8.33 -71.56,4.5 -106.75,87.73 -27.39,64.81 -107.15,170.98 -183.4,160.84 -46.02,-6.11 -90.75,12.79 -137.78,12.79 -62.87,0 -90.6,11.38 -124.09,65.8 -3.53,31.04 -37.41,62.21 -37.41,84.99 0,31.67 94.55,56.91 54.75,96.87 -29,29.13 -62.27,-41.83 -97.63,19.19 -4.77,8.25 -20.18,17.71 -11.86,27.42 35.8,41.82 5.05,35.53 -14.6,39.3 -51.33,9.84 -80.64,296.77 -91.24,350.01 -16.94,48.1 6.36,54.83 17.33,90.47 14.45,46.9 45.15,-50 57.49,-11.88 9.94,30.74 31.06,29.24 50.18,48.44 10.87,10.91 10.04,131.43 10.04,154.44 0,37.57 2.89,76.19 -1.39,113.66l0 0z"/>
  <path id="is" d="M5443.79 2156.38c19.2,70.9 7.46,113.64 89.41,52.09 71.61,-53.77 84.55,-35.04 62.96,40.21 -6.08,21.19 80.66,6.2 90.33,-2.74 27.13,-25.05 32.8,-96.95 73.91,-122.46 19.84,-12.3 65.45,31.45 89.42,36.56 52.35,11.16 -5.52,117.78 20.98,170.89 29.77,59.68 54.55,-28.04 81.21,-23.76 35.05,5.64 35.44,14 72.99,5.48 12.35,-2.8 63.81,-4.39 52.01,20.11 -9.69,20.14 -53.68,-4.22 -62.96,16.45 -13.33,29.72 -41.27,30.37 -72.08,47.52 -30.21,16.83 34.52,53.92 52.92,53.92 54.71,0 43.8,-3.92 43.8,48.43 0,33.36 -55.99,34.79 -83.94,46.61 -18.89,7.99 -127.72,43.67 -64.79,60.32 27.4,7.25 71.15,-10.06 102.2,-10.06 -11.37,15.09 -8.21,48.18 -18.25,66.72 15.39,61.73 194.62,125.65 26.46,167.23l0 1.83c21.87,5.4 73.4,29.37 43.79,53.01 -18.23,14.54 -99.11,-29.72 -66.6,17.36 51.66,74.83 -28.5,136.94 -89.42,82.25 -17.56,-15.76 -39.02,12.32 -52.01,15.53 0,9.09 71.04,31.46 58.4,42.95l-49.27 44.78c-30.79,27.99 -119.09,95.77 -151.47,61.23 -32.23,-34.37 -50.56,29.84 -70.25,47.52 -15.09,13.54 12.39,36.96 -5.48,51.18 -23.83,18.98 -37.81,12.94 -64.78,20.11 -33.21,8.84 -11.86,62.15 -55.66,33.81 -53.17,-34.39 -42.41,38.47 -78.47,28.33 -17.83,-5.02 -36.91,-76.63 -30.11,-95.96 17.91,-50.83 -40.44,-25.75 -55.66,10.06 -23.38,55.03 -82.33,-28.89 -104.01,-23.76 -33.3,7.89 -44.1,28.88 -80.3,37.46 -47.94,12.11 -136.97,53.52 -184.31,29.25 -28.32,-14.51 -53.71,-61.09 -89.42,-78.6 -17.6,-8.62 -15.47,44.06 -32.84,54.84 -44.19,27.4 -51.58,-19.95 -62.96,-40.21 -7.12,-12.69 -38.56,1.61 -52.01,-2.74 -19.93,-6.44 -27.23,-43.39 -29.2,-43.87 -21.81,65.93 -21.71,100.52 -90.33,100.52 -51.61,0 -10.55,-107.48 -39.23,-116.97 -4.37,17.71 -23.64,113.72 -31.02,116.97 -41.11,18.1 -83.86,-34.07 -105.84,-60.31 -19.44,-23.22 -57.35,-26.53 -72.09,-53 -22.43,-40.3 45.62,-35.63 45.62,-63.98 -38.72,0 -72.74,41.99 -104.01,-0.91l-44.71 -78.59c-5.05,-8.87 -37.02,-36.02 -29.2,-43.87 16.11,-16.19 97.63,17.91 97.63,2.74 -10.73,-2.65 -68.11,-61.23 -82.12,-72.19 -29.74,-23.25 -45.62,-63.96 -45.62,-100.53l-0.91 -0.91c-30.07,0 -51.07,14.65 -83.03,6.4 -31.58,-8.16 -41.86,-63.7 -69.35,-71.29 -23.55,-6.49 -41.61,-3 -60.22,-21.93 -23.75,-24.18 -77.04,-45.4 -108.58,-59.4 -22.96,-10.18 -117.06,-44.48 -87.59,-82.25l84.86 -108.75c3.68,11.29 21.28,76.64 27.37,80.42 21.01,13.03 54.46,4.61 77.56,15.54 85.93,40.64 90.97,-49.35 163.32,-52.09 78.38,-2.96 -5.79,-42.89 -17.34,-75.85 20.12,-25.85 15.09,-38.12 52.01,-40.21 28.91,-1.64 45.79,-21.85 8.21,-28.33 -19.36,-3.33 -39.23,-1.41 -58.39,-5.49 -85.89,-18.33 36.06,-121.66 -20.07,-164.49 -58.03,-44.27 -117.29,-75.24 -182.49,-107.84 -24.42,-12.21 -33.36,-152 60.22,-36.55 27.22,33.59 55.39,14.54 92.16,23.76 48.77,12.24 74.23,56.63 114.96,63.97 30.2,5.45 60.08,-1.96 90.33,6.39 44.63,12.31 130.04,59.48 154.2,-14.62 -25.13,-8.31 -66.32,-8.07 -86.68,-27.41l-71.17 -67.63 93.07 -21.02c25.17,-5.68 123.18,10.22 123.18,10.05 0,-17.41 -33.2,-38.32 -46.54,-45.69 -19.76,-10.93 -75.11,-33.73 -27.37,-50.26 37.58,-13.02 -72.43,-45.52 -78.47,-55.75 -47.12,-79.81 -162.39,-16.09 -229.02,-48.43 -16.38,-23.8 -29.67,-61.95 -36.49,-89.56 -7.68,-1.93 -22.5,-25.55 -33.76,-28.33 -0.08,-0.34 59.55,-57.67 67.52,-41.13l37.41 77.68 2.73 0c1.55,-6.15 3.69,-25.25 10.04,-26.5 1.82,-7.39 32.12,18.41 43.8,15.54 0,-17.85 -30.38,-60.69 -28.29,-63.06 42.42,-47.87 57.18,76.87 85.77,86.82 41.08,14.31 70.21,-29.4 40.15,-61.23 -8.35,-8.85 -63.89,-64.41 -46.54,-71.29 30.17,-11.95 88.97,108.15 104.93,45.7 10.19,-39.91 -38.78,-102.36 38.32,-102.36 7.12,21.37 8.16,74.54 34.68,81.34 49.39,12.65 -9.26,-59.44 29.19,-62.14 109.14,-7.69 0.67,37.62 70.26,84.07 24.89,16.62 -55.33,106.72 20.99,116.98 48.42,6.5 68.17,-89.23 50.18,-121.55 -23.07,-41.42 30.22,-47.29 41.97,-9.14 10.91,35.46 37.15,22.21 10.95,-27.41 -18.77,-35.57 -98.38,-74.14 -54.75,-111.49 18.9,-16.19 26.26,-7.56 43.8,4.57 34.17,23.65 45.19,-6.29 84.86,27.41 28.65,24.35 43.53,15.07 31.02,59.4 -14.77,52.3 -10.27,96.27 0,148.05 4.58,23.06 22.4,31.24 33.76,49.35 1.42,2.28 36.52,39.34 21.9,42.95 -1.96,7.79 -39.85,-17.84 -56.57,-13.71 -6.9,34.36 33.39,37.29 -17.34,68.54 -16.51,10.16 -17.35,34.86 -33.76,43.87 -17.97,9.88 -28.93,-24.59 -36.5,-34.73 -24.95,-33.38 -23.06,107.18 -30.11,114.23 -27.51,39.89 -52.02,11.09 -77.55,30.16 0,41.43 -2.96,53.39 -10.95,95.04 -1.81,9.48 -21.69,50.4 -16.43,53.01 17.58,8.75 88.46,-77.89 104.02,-90.47 27.6,-22.29 65.8,-34.78 99.46,-26.51l0.91 0.92c4.4,17.81 -45.18,102.35 11.86,102.35 21.95,-30.81 30.71,-63.12 52.92,-92.3 35.62,-46.77 79.65,-79.69 111.32,-134.34 23.84,-41.16 34.8,-84.6 92.15,-41.12 0,26.82 -34.67,57.83 -34.67,97.78 0,67.51 74.91,161.5 93.07,46.61 4.17,-26.4 51.03,-86.83 78.47,-73.11 87.1,43.54 114.05,-57.28 114.05,90.47 0,35.8 10.5,74.61 5.47,110.58 -4.53,32.46 -19.16,56.94 -19.16,89.56l2.74 1.83c19.3,-11.07 37.49,-64.82 66.61,-83.16 75.06,-47.3 10.95,-21.68 10.95,-95.05 0,-45.52 53.92,-27.41 79.38,-27.41 10.51,14.07 17.24,35.82 27.37,52.09l10.04 20.1z"/>
 </g>
</svg>
